<?xml version="1.0" encoding="utf-8"?>
<!-- Generator: Adobe Illustrator 24.1.0, SVG Export Plug-In . SVG Version: 6.00 Build 0)  -->
<svg version="1.1" id="Capa_1" xmlns="http://www.w3.org/2000/svg" xmlns:xlink="http://www.w3.org/1999/xlink" x="0px" y="0px"
	 viewBox="0 0 480.1 480.1" style="enable-background:new 0 0 480.1 480.1;" xml:space="preserve">
<style type="text/css">
	.st0{opacity:0.35;fill:#FD194D;}
	.st1{fill:#2E0084;}
	.st2{fill:#E53E3E;}
</style>
<circle class="st0" cx="172.7" cy="231.8" r="104.8"/>
<circle class="st0" cx="319.2" cy="188" r="92.4"/>
<circle class="st0" cx="217.1" cy="173.4" r="77.8"/>
<circle class="st0" cx="329.9" cy="264.4" r="105.3"/>
<g>
	<path class="st1" d="M56.8,320.6v-0.1c0-10.9,8.4-19.4,19.6-19.4c7.6,0,12.5,3.2,15.8,7.8l-7.8,6c-2.1-2.7-4.6-4.4-8.1-4.4
		c-5.2,0-8.9,4.4-8.9,9.8v0.1c0,5.6,3.7,9.9,8.9,9.9c3.9,0,6.2-1.8,8.4-4.5l7.8,5.5c-3.5,4.8-8.2,8.4-16.5,8.4
		C65.3,339.9,56.8,331.8,56.8,320.6z"/>
	<path class="st1" d="M96.9,301.9h10.3v28.2h18v9H96.9V301.9z"/>
	<path class="st1" d="M126.2,320.6v-0.1c0-10.7,8.6-19.4,20.1-19.4c11.5,0,20,8.6,20,19.3v0.1c0,10.7-8.6,19.4-20.1,19.4
		C134.8,339.9,126.2,331.3,126.2,320.6z M155.8,320.6v-0.1c0-5.4-3.9-10.1-9.6-10.1c-5.6,0-9.4,4.6-9.4,9.9v0.1
		c0,5.4,3.9,10.1,9.5,10.1C152,330.6,155.8,326,155.8,320.6z"/>
	<path class="st1" d="M171.2,322.8v-20.9h10.5v20.7c0,5.4,2.7,7.9,6.9,7.9c4.1,0,6.9-2.4,6.9-7.7v-21h10.5v20.6
		c0,12-6.9,17.3-17.4,17.3S171.2,334.5,171.2,322.8z"/>
	<path class="st1" d="M212,301.9h14.4c13.3,0,21,7.7,21,18.4v0.1c0,10.7-7.8,18.7-21.2,18.7H212V301.9z M226.6,330
		c6.2,0,10.3-3.4,10.3-9.4v-0.1c0-6-4.1-9.4-10.3-9.4h-4.2V330H226.6z"/>
	<path class="st2" d="M252.7,301.9h10.9l8.9,14.4l8.9-14.4h10.9v37.2H282v-21.4l-9.5,14.6h-0.2l-9.5-14.5v21.3h-10.1V301.9z"/>
	<path class="st2" d="M299.1,301.9h10.4v37.2h-10.4V301.9z"/>
	<path class="st2" d="M316.3,301.9h9.6l15.3,19.7v-19.7h10.2v37.2h-9l-15.9-20.4v20.4h-10.2V301.9z"/>
	<path class="st2" d="M358,301.9h14.4c13.3,0,21,7.7,21,18.4v0.1c0,10.7-7.8,18.7-21.2,18.7H358V301.9z M372.6,330
		c6.2,0,10.3-3.4,10.3-9.4v-0.1c0-6-4.1-9.4-10.3-9.4h-4.2V330H372.6z"/>
</g>
</svg>
