<?xml version="1.0" encoding="iso-8859-1"?>
<!-- Generator: Adobe Illustrator 19.0.0, SVG Export Plug-In . SVG Version: 6.00 Build 0)  -->
<svg version="1.1" id="Capa_1" xmlns="http://www.w3.org/2000/svg" xmlns:xlink="http://www.w3.org/1999/xlink" x="0px" y="0px"
	 viewBox="0 0 479.424 479.424" style="enable-background:new 0 0 479.424 479.424;" xml:space="preserve">
<g>
	<g>
		<path d="M207.748,0C93.032-0.009,0.029,92.98,0.02,207.696C0.011,322.403,92.985,415.402,207.692,415.424
			c19.602,0.014,39.107-2.744,57.936-8.192c4.229-1.281,6.618-5.747,5.337-9.976c-1.259-4.154-5.6-6.547-9.785-5.392
			c-8.914,2.575-18.005,4.495-27.2,5.744c9.805-8.121,18.971-16.985,27.416-26.512c3.035-3.211,2.893-8.274-0.318-11.309
			c-3.211-3.035-8.274-2.893-11.309,0.318c-0.129,0.137-0.253,0.278-0.372,0.423c-10.173,11.54-21.462,22.044-33.704,31.36v-96
			c15.454,0.452,30.824,2.448,45.88,5.96c4.301,1.012,8.608-1.655,9.62-5.956c1.012-4.301-1.655-8.608-5.956-9.62
			c-16.257-3.798-32.856-5.942-49.544-6.4V215.72h90.712c-0.168,4.96-0.456,9.936-0.944,14.928c-0.427,4.398,2.793,8.308,7.19,8.735
			c0.003,0,0.007,0.001,0.01,0.001c0.266,0.016,0.534,0.016,0.8,0c4.105-0.004,7.541-3.115,7.952-7.2
			c0.536-5.504,0.872-11,1.048-16.48h76.944c0.113,4.155,3.416,7.517,7.568,7.704c4.405,0.145,8.109-3.277,8.312-7.68
			c0.112-2.664,0.16-5.336,0.16-8C415.453,93.012,322.464,0.009,207.748,0z M181.348,17.864
			c-26.846,22.507-48.601,50.464-63.824,82.016c-16.111-7.436-31.277-16.768-45.176-27.8
			C101.81,42.624,140.081,23.588,181.348,17.864z M61.356,84.072c15.237,12.164,31.902,22.424,49.624,30.552
			c-10.943,27.092-17.007,55.907-17.912,85.112H16.204C17.939,157.226,33.832,116.515,61.356,84.072z M59.22,328.792
			C32.993,296.767,17.895,257.08,16.204,215.72h76.864c0.881,28.72,6.753,57.068,17.352,83.776
			C92.224,307.139,75.03,316.977,59.22,328.792z M69.892,340.784h-0.024c14.524-10.722,30.279-19.668,46.928-26.648
			c15.259,32.127,37.269,60.585,64.528,83.432C138.867,391.66,99.625,371.662,69.892,340.784z M199.668,391.848
			c-28.85-22.108-52.091-50.698-67.84-83.456l-0.024,0c21.889-7.459,44.754-11.669,67.864-12.496V391.848z M199.668,279.912
			c-25.332,0.861-50.39,5.524-74.336,13.832c-9.89-24.874-15.4-51.271-16.288-78.024h90.648L199.668,279.912z M199.692,199.72
			h-90.624c0.9-27.076,6.54-53.784,16.664-78.912c23.677,8.953,48.662,13.964,73.96,14.832V199.72z M199.692,119.424
			c-23.037-0.796-45.798-5.28-67.416-13.28c15.745-32.389,38.828-60.658,67.416-82.56V119.424z M343.044,72.056
			c-13.893,11.042-29.057,20.382-45.168,27.824c-15.256-31.574-37.05-59.544-63.936-82.056
			C275.245,23.532,313.556,42.574,343.044,72.056z M215.692,23.584c28.591,21.9,51.678,50.17,67.424,82.56
			c-21.621,8-44.384,12.483-67.424,13.28V23.584z M215.692,199.72l-0.024-64.08c25.297-0.87,50.281-5.878,73.96-14.824
			c10.143,25.123,15.813,51.827,16.752,78.904H215.692z M322.404,199.72c-0.952-29.204-7.048-58.01-18.008-85.096
			c17.73-8.123,34.4-18.383,49.64-30.552c27.53,32.435,43.428,73.141,45.168,115.648H322.404z"/>
	</g>
</g>
<g>
	<g>
		<path d="M464.068,327.104v-16.68c-0.002-46.759-37.91-84.662-84.668-84.66c-46.755,0.003-84.657,37.904-84.66,84.66v16.68
			c-9.222,3.57-15.311,12.431-15.336,22.32v106c0,13.255,10.745,24,24,24h152c13.255,0,24-10.745,24-24v-106
			C479.379,339.535,473.29,330.674,464.068,327.104z M310.74,310.424c0.044-37.904,30.76-68.62,68.664-68.664
			c37.904,0.044,68.62,30.76,68.664,68.664v15h-16.664v-18.92c0-28.719-23.281-52-52-52s-52,23.281-52,52v18.92H310.74V310.424z
			 M415.404,306.504v18.92h-72v-18.92c0-19.882,16.118-36,36-36S415.404,286.622,415.404,306.504z M463.404,455.424
			c0,4.418-3.582,8-8,8h-152c-4.418,0-8-3.582-8-8v-106c0-4.418,3.582-8,8-8h152c4.418,0,8,3.582,8,8V455.424z"/>
	</g>
</g>
<g>
</g>
<g>
</g>
<g>
</g>
<g>
</g>
<g>
</g>
<g>
</g>
<g>
</g>
<g>
</g>
<g>
</g>
<g>
</g>
<g>
</g>
<g>
</g>
<g>
</g>
<g>
</g>
<g>
</g>
</svg>
